2.2Hzlow3min_grf.mot
version=1
nRows=25
nColumns 19
inDegrees=yes
endheader
time	1_ground_force_vx	1_ground_force_vy	1_ground_force_vz	1_ground_force_px	1_ground_force_py	1_ground_force_pz	1_ground_torque_x	1_ground_torque_y	1_ground_torque_z	2_ground_force_vx	2_ground_force_vy	2_ground_force_vz	2_ground_force_px	2_ground_force_py	2_ground_force_pz	2_ground_torque_x	2_ground_torque_y	2_ground_torque_z
            3.751500	            0.410889	            3.066562	           -0.446443	           -0.233013	            0.005581	           -0.255695	            0.074040	           -0.018460	            0.054817	            0.140365	            0.002014	           -0.422413	           -0.232311	            0.006130	           -0.833667	            0.000034	           -0.009453	           -0.000034
            3.752000	            0.456848	            1.804908	           -0.497823	           -0.233013	            0.005581	           -0.255695	           -0.036007	           -0.027383	           -0.018141	            0.047412	           -0.183142	           -0.235317	           -0.232311	            0.006130	           -0.833667	            0.037562	            0.000203	           -0.018866
            3.752500	            0.503000	            1.984593	           -0.359596	           -0.233013	            0.005581	           -0.255695	            0.051777	            0.009795	           -0.053847	            0.094220	           -0.182638	           -0.329194	           -0.232311	            0.006130	           -0.833667	           -0.075217	            0.009518	           -0.094185
            3.753000	            0.274079	            1.623624	           -0.268861	           -0.233013	            0.005581	           -0.255695	            0.029535	            0.009285	            0.030435	            0.143729	           -0.919063	           -0.331842	           -0.232311	            0.006130	           -0.833667	           -0.037570	           -0.009319	           -0.075419
            3.753500	            0.274306	            1.623231	           -0.177150	           -0.233013	            0.005581	           -0.255695	            0.044205	            0.037344	           -0.044673	            0.094926	           -0.367121	           -0.235994	           -0.232311	            0.006130	           -0.833667	           -0.112677	           -0.019043	           -0.075420
            3.754000	            0.411446	            1.263512	           -0.362461	           -0.233013	            0.005581	           -0.255695	            0.052336	           -0.055112	           -0.020415	            0.284217	           -0.918053	           -0.472686	           -0.232311	            0.006130	           -0.833667	            0.019043	           -0.084603	           -0.113413
            3.754500	            0.366124	            0.902186	           -0.180469	           -0.233013	            0.005581	           -0.255695	            0.045058	           -0.000232	            0.109483	           -0.045021	           -0.551275	           -0.377376	           -0.232311	            0.006130	           -0.833667	           -0.037357	           -0.066103	           -0.056771
            3.755000	            0.411886	            0.722125	           -0.227212	           -0.233013	            0.005581	           -0.255695	            0.065769	           -0.018454	            0.054921	            0.094803	           -0.366117	           -0.517563	           -0.232311	            0.006130	           -0.833667	           -0.075185	            0.018432	            0.056650
            3.755500	            0.412000	            0.721929	           -0.181356	           -0.233013	            0.005581	           -0.255695	           -0.048955	           -0.036719	           -0.001267	            0.187276	            0.001681	           -0.281648	           -0.232311	            0.006130	           -0.833667	           -0.056455	            0.000603	           -0.226178
            3.756000	            0.045451	            0.901730	           -0.087961	           -0.233013	            0.005581	           -0.255695	            0.022386	            0.008782	            0.114693	            0.232194	            0.553793	           -0.138913	           -0.232311	            0.006130	           -0.833667	           -0.056407	            0.009384	           -0.037643
            3.756500	            0.045729	            0.000205	           -0.045970	           -0.233013	            0.005581	           -0.255695	           -0.035716	           -0.045963	           -0.054548	            0.281723	           -0.182799	           -0.094633	           -0.232311	            0.006130	           -0.833667	           -0.056363	           -0.009320	           -0.094261
            3.757000	            0.320590	            1.081853	           -0.042015	           -0.233013	            0.005581	           -0.255695	           -0.092388	            0.046023	            0.089264	            0.187900	           -0.182133	           -0.376162	           -0.232311	            0.006130	           -0.833667	           -0.037553	           -0.009454	           -0.037718
            3.757500	           -0.091686	           -0.000018	            0.000228	           -0.233013	            0.005581	           -0.255695	           -0.018777	           -0.027776	           -0.003982	            0.516760	           -0.367105	            0.186179	           -0.232311	            0.006130	           -0.833667	           -0.075217	            0.009518	           -0.094185
            3.758000	            0.000195	            0.179872	            0.092485	           -0.233013	            0.005581	           -0.255695	           -0.079058	           -0.055553	            0.018750	            0.142297	           -0.549929	           -0.565168	           -0.232311	            0.006130	           -0.833667	            0.037446	            0.010328	           -0.207335
            3.758500	            0.091785	           -0.540779	           -0.002546	           -0.233013	            0.005581	           -0.255695	           -0.037047	           -0.000207	            0.060414	            0.093597	            0.001175	           -0.234680	           -0.232311	            0.006130	           -0.833667	           -0.037383	           -0.056717	           -0.037887
            3.759000	            0.368077	            0.177977	            0.550134	           -0.233013	            0.005581	           -0.255695	           -0.079862	            0.027903	            0.015949	           -0.188955	            0.369461	           -0.514815	           -0.232311	            0.006130	           -0.833667	           -0.037519	           -0.018907	           -0.037752
            3.759500	            0.001447	            0.177710	            0.596900	           -0.233013	            0.005581	           -0.255695	            0.049596	            0.027680	            0.018787	            0.232091	            0.554630	           -0.373553	           -0.232311	            0.006130	           -0.833667	            0.018863	           -0.028089	           -0.056660
            3.760000	            0.367508	            0.178960	            0.320854	           -0.233013	            0.005581	           -0.255695	           -0.164039	            0.028040	           -0.021437	            0.422834	           -0.365603	           -0.329990	           -0.232311	            0.006130	           -0.833667	           -0.000059	            0.009654	           -0.056517
            3.760500	            0.138536	            0.719123	            0.461310	           -0.233013	            0.005581	           -0.255695	           -0.076318	            0.000065	            0.006028	           -0.139508	           -0.366461	           -0.658248	           -0.232311	            0.006130	           -0.833667	            0.037614	           -0.018568	           -0.056634
            3.761000	            0.183665	           -0.360889	            0.089711	           -0.233013	            0.005581	           -0.255695	           -0.078751	            0.018559	            0.008107	            0.185947	            0.369978	           -0.280334	           -0.232311	            0.006130	           -0.833667	           -0.000073	           -0.008579	           -0.245086
            3.761500	            0.321321	            1.441008	            0.280523	           -0.233013	            0.005581	           -0.255695	           -0.143937	            0.009212	            0.051625	            0.281558	           -0.181460	           -0.470058	           -0.232311	            0.006130	           -0.833667	           -0.056159	           -0.066036	           -0.094463
            3.762000	           -0.045289	           -0.541592	            0.181219	           -0.233013	            0.005581	           -0.255695	           -0.063606	           -0.009593	            0.073374	            0.419552	            0.554804	           -0.232849	           -0.232311	            0.006130	           -0.833667	           -0.075141	           -0.000271	            0.000032
            3.762500	            0.229736	           -0.361273	            0.181309	           -0.233013	            0.005581	           -0.255695	           -0.101564	           -0.008909	           -0.046394	            0.234064	            0.002352	           -0.422453	           -0.232311	            0.006130	           -0.833667	           -0.018751	           -0.009521	           -0.000026
            3.763000	            0.184265	            0.719329	            0.415340	           -0.233013	            0.005581	           -0.255695	            0.000634	            0.018747	           -0.029724	            0.280209	            0.187004	           -0.515672	           -0.232311	            0.006130	           -0.833667	            0.000018	           -0.009318	           -0.037734
            3.763500	            0.367996	           -0.002092	            0.503505	           -0.233013	            0.005581	           -0.255695	           -0.190376	            0.027799	            0.035028	            0.047309	           -0.182305	           -0.469958	           -0.232311	            0.006130	           -0.833667	           -0.112695	           -0.009725	           -0.037686
